<svg width="48" height="48" viewBox="0 0 48 48" fill="none" xmlns="http://www.w3.org/2000/svg">
<rect width="48" height="48" rx="24" fill="#0080BB"/>
<g clip-path="url(#clip0_9709_45060)">
<path fill-rule="evenodd" clip-rule="evenodd" d="M19.94 25.06C19.6591 24.7788 19.5013 24.3975 19.5013 24C19.5013 23.6025 19.6591 23.2213 19.94 22.94L25.596 17.282C25.8774 17.0008 26.259 16.8428 26.6569 16.8429C26.8539 16.8429 27.0489 16.8818 27.2309 16.9572C27.4129 17.0327 27.5783 17.1432 27.7175 17.2825C27.8568 17.4219 27.9672 17.5873 28.0426 17.7693C28.1179 17.9513 28.1567 18.1464 28.1567 18.3434C28.1566 18.5404 28.1178 18.7354 28.0423 18.9174C27.9669 19.0994 27.8564 19.2648 27.717 19.404L23.122 24L27.718 28.596C27.8614 28.7343 27.9757 28.8998 28.0544 29.0828C28.1331 29.2657 28.1746 29.4625 28.1764 29.6617C28.1782 29.8609 28.1404 30.0584 28.065 30.2428C27.9897 30.4272 27.8784 30.5947 27.7376 30.7356C27.5968 30.8765 27.4294 30.988 27.2451 31.0635C27.0608 31.139 26.8633 31.177 26.6641 31.1754C26.465 31.1738 26.2681 31.1325 26.0851 31.0539C25.902 30.9754 25.7365 30.8612 25.598 30.718L19.938 25.06H19.94Z" fill="white"/>
</g>
<defs>
<clipPath id="clip0_9709_45060">
<rect width="24" height="24" fill="white" transform="translate(12 12)"/>
</clipPath>
</defs>
</svg>
