<svg width="48" height="48" viewBox="0 0 48 48" fill="none" xmlns="http://www.w3.org/2000/svg">
<rect width="48" height="48" rx="24" fill="#0080BB"/>
<g clip-path="url(#clip0_9709_45103)">
<path fill-rule="evenodd" clip-rule="evenodd" d="M28.0599 22.94C28.3408 23.2213 28.4986 23.6025 28.4986 24C28.4986 24.3975 28.3408 24.7788 28.0599 25.06L22.4039 30.718C22.1225 30.9993 21.7409 31.1573 21.343 31.1572C20.9452 31.1571 20.5637 30.9989 20.2824 30.7175C20.0011 30.4361 19.8432 30.0545 19.8433 29.6567C19.8434 29.2588 20.0015 28.8773 20.2829 28.596L24.8789 24L20.2829 19.404C20.0095 19.1213 19.8581 18.7424 19.8614 18.3491C19.8646 17.9558 20.0222 17.5795 20.3002 17.3013C20.5781 17.023 20.9543 16.8651 21.3476 16.8615C21.7409 16.8579 22.1199 17.0089 22.4029 17.282L28.0609 22.939L28.0599 22.94Z" fill="white"/>
</g>
<defs>
<clipPath id="clip0_9709_45103">
<rect width="24" height="24" fill="white" transform="translate(12 12)"/>
</clipPath>
</defs>
</svg>
