<svg width="80" height="80" viewBox="0 0 80 80" fill="none" xmlns="http://www.w3.org/2000/svg">
<path d="M69.7201 31.88C70.0739 31.0714 70.0926 30.1555 69.772 29.3332C69.4514 28.5108 68.8178 27.8492 68.0101 27.4934L24.4267 8.30668C21.1101 6.84668 17.0267 8.47668 15.6101 11.78L8.24341 28.96C7.54946 30.585 7.52899 32.419 8.18652 34.0591C8.84405 35.6992 10.1258 37.0111 11.7501 37.7067L31.8767 46.3334L27.7434 56.6667H13.3334V46.6667H6.66675V73.3334H13.3334V63.3334H27.7434C30.4867 63.3334 32.9167 61.6867 33.9301 59.14L38.0034 48.96L55.3534 56.3933C56.1614 56.7401 57.0737 56.7535 57.8916 56.4307C58.7094 56.108 59.3667 55.4751 59.7201 54.67L60.7601 52.3034L66.4301 54.57L73.0967 37.9034L67.9767 35.86L69.7201 31.88ZM54.9401 48.9667L14.3767 31.5834L21.7367 14.41L62.2767 32.2567L54.9401 48.9667Z" fill="#0080BB"/>
</svg>
