<svg width="120" height="120" viewBox="0 0 120 120" fill="none" xmlns="http://www.w3.org/2000/svg">
<path d="M60 23.75C61.3325 25.0825 65 26.4175 65 26.4175C65 26.4175 64 33.75 60 33.75C56 33.75 55 26.4175 55 26.4175C55 26.4175 58.6675 25.0825 60 23.75Z" fill="#0080BB"/>
<path fill-rule="evenodd" clip-rule="evenodd" d="M59.54 15.0425L59.52 15.0475L59.4625 15.0575L59.255 15.0975L58.48 15.2525C57.815 15.3875 56.8675 15.5875 55.735 15.845C53.4725 16.36 50.435 17.1125 47.385 18.055C44.365 18.9875 41.2025 20.1475 38.75 21.505C37.53 22.18 36.36 22.9725 35.4675 23.905C34.58 24.8275 33.75 26.12 33.75 27.7425C33.75 32.105 34.975 35.3 36.27 37.4425C36.9075 38.4975 37.555 39.285 38.065 39.825C38.0867 40.1134 38.1308 40.4334 38.1975 40.785C38.45 42.1 39.0825 43.775 40.5325 45.4025C39.842 48.3382 39.8244 51.392 40.4809 54.3354C41.1374 57.2788 42.451 60.0357 44.3235 62.3997C46.196 64.7637 48.5789 66.6736 51.2938 67.9866C54.0088 69.2996 56.9855 69.9816 60.0012 69.9816C63.017 69.9816 65.9937 69.2996 68.7087 67.9866C71.4236 66.6736 73.8065 64.7637 75.679 62.3997C77.5515 60.0357 78.8651 57.2788 79.5216 54.3354C80.1781 51.392 80.1605 48.3382 79.47 45.4025C80.9175 43.775 81.55 42.1025 81.8025 40.785C81.8692 40.435 81.9133 40.115 81.935 39.825C82.6165 39.097 83.2182 38.2983 83.73 37.4425C85.0275 35.3 86.25 32.105 86.25 27.7425C86.25 26.12 85.42 24.8275 84.5325 23.905C83.64 22.9725 82.47 22.18 81.25 21.505C78.7975 20.1475 75.635 18.9875 72.6125 18.055C69.858 17.2163 67.0736 16.4792 64.265 15.845C63.0953 15.5785 61.9218 15.3284 60.745 15.095L60.5375 15.0575L60.48 15.0475L60.46 15.0425L60 14.9575L59.54 15.0425ZM60 46.25C65.5175 46.25 69.2225 45.535 71.7 44.605C73.7975 43.8175 75.02 42.8775 75.725 42.085C75.98 41.7967 76.1867 41.5184 76.345 41.25H43.655C43.8133 41.52 44.0192 41.7984 44.2725 42.085C44.9825 42.8775 46.2025 43.8175 48.2975 44.605C50.7775 45.535 54.4825 46.25 60 46.25ZM78.43 36.25H41.57C41.1863 35.818 40.844 35.3509 40.5475 34.855C39.69 33.4375 38.76 31.145 38.75 27.795C38.8355 27.6358 38.9451 27.4907 39.075 27.365C39.48 26.9425 40.165 26.435 41.1725 25.88C43.1725 24.7725 45.9475 23.7325 48.8625 22.83C51.4958 22.0301 54.1576 21.3272 56.8425 20.7225C57.892 20.4837 58.9446 20.2586 60 20.0475L60.52 20.15C61.155 20.28 62.065 20.475 63.1575 20.7225C65.3475 21.22 68.25 21.94 71.1375 22.8325C74.0525 23.7325 76.8275 24.7725 78.8275 25.88C79.835 26.435 80.52 26.9425 80.9275 27.365C81.1525 27.6025 81.2275 27.7425 81.25 27.795C81.24 31.145 80.31 33.4375 79.45 34.855C79.1543 35.3508 78.8128 35.8179 78.43 36.25ZM45 50C45 49.55 45.0192 49.105 45.0575 48.665C48.4025 50.2325 53.1925 51.25 60 51.25C65.8625 51.25 70.2225 50.5 73.455 49.2875C73.98 49.0925 74.4758 48.8842 74.9425 48.6625C74.9808 49.1042 75 49.55 75 50C75 53.9783 73.4197 57.7936 70.6066 60.6066C67.7936 63.4197 63.9782 65 60 65C56.0218 65 52.2064 63.4197 49.3934 60.6066C46.5804 57.7936 45 53.9783 45 50Z" fill="#0080BB"/>
<path d="M30 87.5001H47.5V90.615C47.4998 91.158 47.3228 91.6861 46.9958 92.1196C46.6688 92.553 46.2095 92.8682 45.6875 93.0176L39.4375 94.8051C38.9882 94.9336 38.5118 94.9336 38.0625 94.8051L31.8125 93.0176C31.2905 92.8682 30.8312 92.553 30.5042 92.1196C30.1772 91.6861 30.0002 91.158 30 90.615V87.5001ZM84.1625 82.8126C84.1397 82.7204 84.0866 82.6386 84.0119 82.5801C83.9371 82.5216 83.8449 82.4899 83.75 82.4899C83.6551 82.4899 83.5629 82.5216 83.4881 82.5801C83.4134 82.6386 83.3603 82.7204 83.3375 82.8126L82.16 86.6126C82.1342 86.7024 82.0802 86.7816 82.0059 86.8383C81.9316 86.8951 81.841 86.9263 81.7475 86.9276H77.9325C77.515 86.9276 77.34 87.4901 77.68 87.7476L80.765 90.0976C80.915 90.2126 80.98 90.4176 80.9225 90.6026L79.745 94.4026C79.615 94.8226 80.07 95.1701 80.41 94.9101L83.495 92.56C83.5686 92.5049 83.658 92.4751 83.75 92.4751C83.842 92.4751 83.9314 92.5049 84.005 92.56L87.09 94.9101C87.43 95.1701 87.885 94.8226 87.7575 94.4051L86.5775 90.6051C86.5502 90.5144 86.5506 90.4176 86.5786 90.3272C86.6067 90.2368 86.6612 90.1568 86.735 90.0976L89.82 87.7476C90.16 87.4901 89.985 86.9276 89.5675 86.9276H85.75C85.6568 86.9265 85.5665 86.8956 85.4922 86.8393C85.418 86.7831 85.3637 86.7044 85.3375 86.6151L84.1625 82.8126Z" fill="#0080BB"/>
<path fill-rule="evenodd" clip-rule="evenodd" d="M42.1975 70C42.1975 70 15 78.4825 15 88.6675V105H105V88.6675C105 78.4825 77.8025 70 77.8025 70L61.61 83.6425C61.1593 84.0219 60.5891 84.2299 60 84.2299C59.4109 84.2299 58.8407 84.0219 58.39 83.6425L42.1975 70ZM78.8675 75.6425L64.8325 87.4675C63.4801 88.607 61.7685 89.2319 60 89.2319C58.2315 89.2319 56.5199 88.607 55.1675 87.4675L41.1325 75.6425C40.6958 75.7975 40.2183 75.9725 39.7 76.1675C37.25 77.085 34.025 78.3925 30.83 79.9875C27.59 81.605 24.625 83.3975 22.54 85.22C20.2875 87.1875 20 88.3575 20 88.6675V100H100V88.6675C100 88.3575 99.7125 87.1875 97.46 85.2175C95.375 83.3975 92.41 81.605 89.1675 79.9875C85.8224 78.3382 82.3831 76.8874 78.8675 75.6425Z" fill="#0080BB"/>
</svg>
