<svg width="40" height="40" viewBox="0 0 40 40" fill="none" xmlns="http://www.w3.org/2000/svg">
<path fill-rule="evenodd" clip-rule="evenodd" d="M22.6434 3.33331C23.5273 3.3335 24.375 3.68482 25 4.30998L32.3567 11.6666C32.9819 12.2916 33.3332 13.1393 33.3334 14.0233V21.6666H30V16.6666H22.5C21.837 16.6666 21.2011 16.4033 20.7323 15.9344C20.2634 15.4656 20 14.8297 20 14.1666V6.66665H10V33.3333H20V36.6666H10C9.11597 36.6666 8.26812 36.3155 7.643 35.6903C7.01788 35.0652 6.66669 34.2174 6.66669 33.3333V6.66665C6.66669 5.78259 7.01788 4.93474 7.643 4.30962C8.26812 3.6845 9.11597 3.33331 10 3.33331H22.6434ZM28.86 23.4183L33.86 25.085C34.192 25.1956 34.4808 25.4078 34.6854 25.6917C34.89 25.9756 35.0001 26.3167 35 26.6666V29.4516C35.0003 31.2343 34.3431 32.9545 33.1543 34.283C31.9654 35.6114 30.3285 36.4548 28.5567 36.6516C28.4083 36.6683 28.2584 36.6683 28.11 36.6516C26.3382 36.4548 24.7013 35.6114 23.5124 34.283C22.3236 32.9545 21.6664 31.2343 21.6667 29.4516V26.6666C21.6666 26.3167 21.7767 25.9756 21.9813 25.6917C22.1859 25.4078 22.4747 25.1956 22.8067 25.085L27.8067 23.4183C28.1486 23.3044 28.5181 23.3044 28.86 23.4183ZM28.3334 26.7566L25 27.8683V29.4516C25 31.3966 26.425 33.035 28.3334 33.32C30.2417 33.0366 31.6667 31.3966 31.6667 29.4533V27.8683L28.3334 26.7566ZM23.3334 7.35665V13.3333H29.31L23.3334 7.35665Z" fill="#0080BB"/>
</svg>
