<svg width="120" height="120" viewBox="0 0 120 120" fill="none" xmlns="http://www.w3.org/2000/svg">
<path d="M81 105V92.25C81 88.2718 79.4196 84.4564 76.6066 81.6434C73.7936 78.8303 69.9782 77.25 66 77.25H54C50.0218 77.25 46.2064 78.8303 43.3934 81.6434C40.5804 84.4564 39 88.2718 39 92.25V105M108.75 78.75V69.75C108.75 65.7718 107.17 61.9564 104.357 59.1434C101.544 56.3304 97.7282 54.75 93.75 54.75H82.5M11.25 78.75V69.75C11.25 65.7718 12.8304 61.9564 15.6434 59.1434C18.4564 56.3304 22.2718 54.75 26.25 54.75H37.5M72.0375 53.2875C72.0375 54.8683 71.7261 56.4336 71.1212 57.8941C70.5163 59.3545 69.6296 60.6815 68.5118 61.7993C67.394 62.9171 66.067 63.8038 64.6066 64.4087C63.1461 65.0136 61.5808 65.325 60 65.325C58.4192 65.325 56.8539 65.0136 55.3934 64.4087C53.933 63.8038 52.606 62.9171 51.4882 61.7993C50.3704 60.6815 49.4837 59.3545 48.8788 57.8941C48.2739 56.4336 47.9625 54.8683 47.9625 53.2875C47.9625 50.095 49.2307 47.0332 51.4882 44.7757C53.7457 42.5182 56.8075 41.25 60 41.25C63.1925 41.25 66.2543 42.5182 68.5118 44.7757C70.7693 47.0332 72.0375 50.095 72.0375 53.2875ZM100.537 30.7875C100.537 32.3683 100.226 33.9336 99.6212 35.3941C99.0163 36.8545 98.1296 38.1815 97.0118 39.2993C95.894 40.4171 94.567 41.3038 93.1066 41.9087C91.6461 42.5136 90.0808 42.825 88.5 42.825C86.9192 42.825 85.3539 42.5136 83.8934 41.9087C82.433 41.3038 81.106 40.4171 79.9882 39.2993C78.8704 38.1815 77.9837 36.8545 77.3788 35.3941C76.7739 33.9336 76.4625 32.3683 76.4625 30.7875C76.4625 27.595 77.7307 24.5332 79.9882 22.2757C82.2457 20.0182 85.3075 18.75 88.5 18.75C91.6925 18.75 94.7543 20.0182 97.0118 22.2757C99.2693 24.5332 100.537 27.595 100.537 30.7875ZM44.2875 30.7875C44.2875 32.3683 43.9761 33.9336 43.3712 35.3941C42.7663 36.8545 41.8796 38.1815 40.7618 39.2993C39.644 40.4171 38.317 41.3038 36.8566 41.9087C35.3961 42.5136 33.8308 42.825 32.25 42.825C30.6692 42.825 29.1039 42.5136 27.6434 41.9087C26.183 41.3038 24.856 40.4171 23.7382 39.2993C22.6204 38.1815 21.7337 36.8545 21.1288 35.3941C20.5239 33.9336 20.2125 32.3683 20.2125 30.7875C20.2125 27.595 21.4807 24.5332 23.7382 22.2757C25.9957 20.0182 29.0575 18.75 32.25 18.75C35.4425 18.75 38.5043 20.0182 40.7618 22.2757C43.0193 24.5332 44.2875 27.595 44.2875 30.7875Z" stroke="#0080BB" stroke-width="6"/>
</svg>
